<svg width="73" height="73" viewBox="0 0 73 73" fill="none" xmlns="http://www.w3.org/2000/svg">
<rect x="0.026123" width="72" height="72" rx="8" transform="rotate(0.020838 0.026123 0)" fill="#7421EE" fill-opacity="0.08"/>
<g clip-path="url(#clip0_58_1125)">
<path d="M26.0764 48.4853C27.9866 49.9416 30.1538 50.9125 32.5444 51.3759V53.3066C32.5444 54.5201 33.5497 55.5131 34.7785 55.5131H37.5377C38.7665 55.5131 39.7719 54.5201 39.7719 53.3066V51.3759C41.8385 51.0008 43.6705 50.3057 45.2233 49.3018C48.0048 47.4814 49.4459 44.9439 49.5017 41.7555C49.5464 39.7365 48.9655 37.9934 47.7703 36.5812C46.0164 34.5071 43.3242 33.1612 39.7607 32.5654V29.2777C39.9953 29.4432 40.2299 29.6197 40.4533 29.8183C40.956 30.2265 41.5481 30.4472 42.2072 30.4472C42.7545 30.4582 43.3689 30.1603 43.4583 30.1051C43.4918 30.0941 43.5253 30.072 43.5477 30.061L46.642 28.1414C47.4463 27.6449 47.6139 26.994 47.625 26.5416C47.6362 26.0231 47.424 25.5487 47.0106 25.1626C45.1116 23.0333 42.6652 21.6542 39.7496 21.0364V18.7196C39.7496 17.506 38.7442 16.5131 37.5154 16.5131H34.7562C33.5274 16.5131 32.522 17.506 32.522 18.7196V20.9261C31.2709 21.1467 30.1091 21.4887 29.0702 21.9631C25.1045 23.7504 23.1161 26.4975 23.1832 30.1272C23.2167 31.9034 23.764 33.5142 24.8141 34.8822C26.4451 37.0446 29.0367 38.4568 32.5332 39.0967V43.8296C31.4384 43.278 30.3772 42.4616 29.3718 41.3914C28.9362 40.8398 28.3218 40.5529 27.5957 40.5529C27.2047 40.5529 26.6796 40.7626 26.4786 40.8508C26.4674 40.8619 26.4451 40.8619 26.4339 40.8729C26.4227 40.8729 26.4115 40.8839 26.4004 40.895L23.5853 42.5057C22.6916 43.0242 22.5017 43.7303 22.5129 44.2268C22.5241 44.6791 22.6805 45.0873 23.0044 45.4514C23.7752 46.5215 24.8141 47.5365 26.0764 48.4853ZM24.3114 43.7414L27.093 42.1306C27.2717 42.0534 27.5175 41.9761 27.5957 41.9651C27.8861 41.9651 28.076 42.0534 28.2436 42.274C28.2547 42.2961 28.2659 42.3071 28.2882 42.3182C29.7516 43.8848 31.3491 44.977 33.0247 45.5617C33.2481 45.6389 33.4939 45.6058 33.6838 45.4735C33.8737 45.3411 33.9854 45.1204 33.9854 44.8887V38.4678C33.9854 38.1148 33.7285 37.8169 33.371 37.7617C29.9527 37.2542 27.4728 35.9965 25.9759 34.0217C25.1045 32.8743 24.6577 31.5945 24.6354 30.1051C24.5795 27.0602 26.2328 24.8316 29.6958 23.276C30.7794 22.7795 32.0081 22.4375 33.371 22.25C33.7285 22.2058 33.9966 21.8969 33.9966 21.5439V18.7196C33.9966 18.2893 34.3429 17.9473 34.7785 17.9473H37.5377C37.9734 17.9473 38.3197 18.3003 38.3197 18.7196V21.6101C38.3197 21.9631 38.5766 22.261 38.9229 22.3162C41.7938 22.8126 44.1621 24.0924 45.9717 26.1224C45.9941 26.1445 46.0053 26.1665 46.0276 26.1776C46.184 26.3099 46.1952 26.4203 46.1952 26.4975C46.1952 26.5747 46.1952 26.7292 45.8824 26.9167L42.8216 28.8143C42.654 28.8916 42.3635 29.0019 42.2295 29.0019C41.9055 29.0019 41.6374 28.9026 41.4029 28.715C40.7661 28.1634 40.0735 27.7221 39.3586 27.3801C39.1352 27.2808 38.8671 27.2918 38.666 27.4242C38.4537 27.5566 38.3309 27.7883 38.3309 28.031V33.1722C38.3309 33.5252 38.599 33.8341 38.9564 33.8783C42.4641 34.3637 45.0557 35.5773 46.6755 37.4859C47.6474 38.6443 48.1054 40.0344 48.0719 41.7224C48.016 44.4474 46.8319 46.5326 44.4413 48.0992C42.9109 49.0921 41.0677 49.743 38.9564 50.063C38.599 50.1182 38.342 50.416 38.342 50.7691V53.3066C38.342 53.7368 37.9846 54.0788 37.5601 54.0788H34.8009C34.3652 54.0788 34.0189 53.7368 34.0189 53.3066V50.7691C34.0189 50.416 33.762 50.1182 33.4045 50.063C31.0251 49.6879 28.858 48.7722 26.9813 47.349C25.8083 46.4664 24.87 45.5507 24.1774 44.5909C24.1662 44.5688 24.1439 44.5467 24.1327 44.5357C24.0098 44.3923 23.9875 44.293 23.9875 44.2047C23.9651 44.1165 23.9539 43.951 24.3114 43.7414Z" fill="#9658F2"/>
<path d="M33.9853 27.8986C33.9853 27.667 33.8624 27.4463 33.6725 27.3029C33.4714 27.1705 33.2257 27.1374 33.0023 27.2257L32.79 27.3139C32.7677 27.3249 32.7565 27.3249 32.7453 27.336C31.0697 28.1303 30.7122 29.2887 30.7234 30.1272C30.7346 31.0981 31.1367 32.4109 33.0134 33.117C33.1028 33.1501 33.181 33.1612 33.2704 33.1612C33.4156 33.1612 33.5608 33.117 33.6837 33.0398C33.8848 32.9074 33.9965 32.6868 33.9965 32.4551V27.8986H33.9853ZM32.5442 31.1753C32.2315 30.8333 32.1756 30.4582 32.1644 30.1272C32.1644 29.8735 32.2091 29.5315 32.5442 29.1894V31.1753Z" fill="#9658F2"/>
<path d="M38.6549 45.4072C38.7778 45.4845 38.9118 45.5176 39.0459 45.5176C39.1464 45.5176 39.2469 45.4955 39.3475 45.4514C39.5597 45.3521 39.8055 45.2417 40.0289 45.0983C41.3136 44.326 41.995 43.1676 42.0062 41.7555C42.0173 40.6522 41.5481 39.1959 39.2581 38.4788C39.0347 38.4126 38.8001 38.4457 38.6102 38.5891C38.4203 38.7215 38.3086 38.9422 38.3086 39.1628V44.7894C38.3198 45.0432 38.4538 45.2748 38.6549 45.4072ZM39.772 40.2771C40.4534 40.7294 40.5651 41.2811 40.5651 41.7555C40.5539 42.4836 40.3082 43.0573 39.772 43.5207V40.2771Z" fill="#9658F2"/>
</g>
<defs>
<clipPath id="clip0_58_1125">
<rect width="27" height="39" fill="white" transform="translate(22.5129 16.5131)"/>
</clipPath>
</defs>
</svg>
