<svg width="80" height="29" viewBox="0 0 80 29" fill="none" xmlns="http://www.w3.org/2000/svg">
<path d="M14.8163 7.46707C14.8163 8.54757 14.5544 9.56054 14.0304 10.506C13.5259 11.4514 12.7206 12.2136 11.6145 12.7924C10.5279 13.3713 9.15012 13.6607 7.4813 13.6607H4.07575V21.4172H0.000732422V1.21557H7.4813C9.05309 1.21557 10.392 1.4857 11.4981 2.02595C12.6042 2.5662 13.4289 3.30905 13.9722 4.25449C14.535 5.19993 14.8163 6.27079 14.8163 7.46707ZM7.30666 10.3902C8.43214 10.3902 9.26655 10.1394 9.80988 9.63773C10.3532 9.11677 10.6249 8.39321 10.6249 7.46707C10.6249 5.499 9.51881 4.51497 7.30666 4.51497H4.07575V10.3902H7.30666Z" fill="#7421EE"/>
<path d="M19.0837 0V21.4172H15.0086V0H19.0837Z" fill="#7421EE"/>
<path d="M35.3991 13.0529C35.3991 13.6317 35.3603 14.1527 35.2827 14.6158H23.4943C23.5913 15.7735 23.9988 16.6803 24.7168 17.3363C25.4347 17.9924 26.3177 18.3204 27.3655 18.3204C28.8791 18.3204 29.9561 17.674 30.5964 16.3812H34.9916C34.5259 17.9248 33.6333 19.1983 32.3138 20.2016C30.9942 21.1856 29.3739 21.6776 27.4528 21.6776C25.9005 21.6776 24.5033 21.34 23.2614 20.6647C22.0389 19.9701 21.0784 18.9957 20.3798 17.7415C19.7006 16.4874 19.361 15.0403 19.361 13.4002C19.361 11.7409 19.7006 10.2841 20.3798 9.02994C21.0589 7.77578 22.0098 6.81105 23.2323 6.13573C24.4548 5.46041 25.8616 5.12275 27.4528 5.12275C28.9858 5.12275 30.3539 5.45077 31.557 6.10679C32.7795 6.76281 33.7206 7.6986 34.3804 8.91417C35.0595 10.1104 35.3991 11.49 35.3991 13.0529ZM31.1786 11.8952C31.1592 10.8533 30.7808 10.0236 30.0434 9.40619C29.306 8.76946 28.4037 8.4511 27.3364 8.4511C26.3274 8.4511 25.4736 8.75982 24.775 9.37725C24.0958 9.97538 23.6786 10.8147 23.5234 11.8952H31.1786Z" fill="#7421EE"/>
<path d="M44.6086 5.1517C46.5296 5.1517 48.082 5.75948 49.2657 6.97505C50.4494 8.17132 51.0413 9.84997 51.0413 12.011V21.4172H46.9662V12.5609C46.9662 11.2874 46.6461 10.313 46.0057 9.63773C45.3653 8.94312 44.4921 8.59581 43.386 8.59581C42.2606 8.59581 41.3679 8.94312 40.7082 9.63773C40.0678 10.313 39.7476 11.2874 39.7476 12.5609V21.4172H35.6726V5.38323H39.7476V7.38024C40.291 6.68563 40.9799 6.14538 41.8143 5.75948C42.6681 5.35429 43.5995 5.1517 44.6086 5.1517Z" fill="#7421EE"/>
<path d="M56.96 8.71158V16.4681C56.96 17.0083 57.0861 17.4039 57.3384 17.6547C57.61 17.8862 58.0563 18.002 58.6773 18.002H60.5693V21.4172H58.0078C54.5732 21.4172 52.8559 19.7578 52.8559 16.4391V8.71158H50.9348V5.38323H52.8559V1.41816H56.96V5.38323H60.5693V8.71158H56.96Z" fill="#7421EE"/>
<path d="M76.2262 5.38323L66.2424 29H61.9054L65.3983 21.012L58.9365 5.38323H63.5063L67.6686 16.5838L71.8892 5.38323H76.2262Z" fill="#7421EE"/>
<path d="M77.5266 21.6198C76.7892 21.6198 76.178 21.3979 75.6929 20.9541C75.2271 20.491 74.9943 19.9218 74.9943 19.2465C74.9943 18.5712 75.2271 18.0116 75.6929 17.5679C76.178 17.1048 76.7892 16.8733 77.5266 16.8733C78.2446 16.8733 78.8365 17.1048 79.3022 17.5679C79.7679 18.0116 80.0007 18.5712 80.0007 19.2465C80.0007 19.9218 79.7679 20.491 79.3022 20.9541C78.8365 21.3979 78.2446 21.6198 77.5266 21.6198Z" fill="#7421EE"/>
</svg>
