<svg width="52" height="52" viewBox="0 0 52 52" fill="none" xmlns="http://www.w3.org/2000/svg">
<rect x="0.0189209" width="51.9811" height="51.9811" rx="25.9905" transform="rotate(0.020838 0.0189209 0)" fill="#7421EE"/>
<path fill-rule="evenodd" clip-rule="evenodd" d="M26 16C26.6904 16 27.25 16.5596 27.25 17.25V34.75C27.25 35.4404 26.6904 36 26 36C25.3096 36 24.75 35.4404 24.75 34.75V17.25C24.75 16.5596 25.3096 16 26 16Z" fill="white"/>
<path fill-rule="evenodd" clip-rule="evenodd" d="M16 26C16 25.3096 16.5596 24.75 17.25 24.75H34.75C35.4404 24.75 36 25.3096 36 26C36 26.6904 35.4404 27.25 34.75 27.25H17.25C16.5596 27.25 16 26.6904 16 26Z" fill="white"/>
</svg>
