<svg width="40" height="22" viewBox="0 0 40 22" fill="none" xmlns="http://www.w3.org/2000/svg">
<path d="M22.5625 11C22.5625 17.0744 17.5125 22 11.28 22C9.80066 22.0019 8.33541 21.7189 6.96793 21.1672C5.60044 20.6154 4.35749 19.8057 3.31005 18.7842C2.2626 17.7628 1.43117 16.5496 0.863235 15.214C0.295296 13.8784 0.00196852 12.4465 0 11C0 4.92312 5.05 1.33073e-05 11.28 1.33073e-05C12.7596 -0.00223536 14.2251 0.280522 15.5928 0.832136C16.9606 1.38375 18.2039 2.19342 19.2516 3.21489C20.2993 4.23637 21.1309 5.44964 21.699 6.78542C22.2671 8.12121 22.5605 9.55333 22.5625 11ZM34.9375 11C34.9375 16.72 32.4125 21.3547 29.2975 21.3547C26.1825 21.3547 23.6575 16.7176 23.6575 11C23.6575 5.28001 26.1825 0.645346 29.2975 0.645346C32.4125 0.645346 34.9375 5.28245 34.9375 11ZM40 11C40 16.1236 39.1125 20.2767 38.015 20.2767C36.92 20.2767 36.0325 16.1211 36.0325 11C36.0325 5.87645 36.92 1.72334 38.0175 1.72334C39.1125 1.72334 40 5.87645 40 11Z" fill="#203152"/>
</svg>
