<svg width="31" height="23" viewBox="0 0 31 23" fill="none" xmlns="http://www.w3.org/2000/svg">
<path d="M26.2427 1.90753C24.2665 1.02592 22.1482 0.374301 19.933 0.00376941C19.9133 2.31031e-05 19.8929 0.00243736 19.8746 0.0106783C19.8563 0.0189193 19.8411 0.0325793 19.831 0.0497664C19.5598 0.521235 19.2575 1.13581 19.0457 1.62133C16.6963 1.2741 14.3079 1.2741 11.9585 1.62133C11.7226 1.08324 11.4565 0.558575 11.1616 0.0497664C11.1516 0.0323677 11.1365 0.0183987 11.1182 0.00972363C11.1 0.00104856 11.0795 -0.00192014 11.0596 0.0012139C8.8457 0.371745 6.72743 1.02337 4.74994 1.90626C4.73293 1.91331 4.71851 1.92535 4.70861 1.94075C0.689059 7.7862 -0.412701 13.4873 0.128492 19.1168C0.129998 19.1306 0.134324 19.1439 0.141208 19.156C0.148092 19.1681 0.157388 19.1787 0.168533 19.1871C2.51464 20.8767 5.13141 22.1639 7.90927 22.9946C7.92863 23.0005 7.94934 23.0005 7.9687 22.9945C7.98805 22.9886 8.00515 22.9771 8.01776 22.9614C8.61552 22.1706 9.14522 21.3316 9.6013 20.4533C9.60763 20.4412 9.61128 20.428 9.612 20.4145C9.61272 20.401 9.61049 20.3875 9.60547 20.3749C9.60045 20.3623 9.59275 20.3509 9.58289 20.3415C9.57304 20.3321 9.56126 20.3249 9.54834 20.3204C8.71396 20.0096 7.9055 19.6345 7.13041 19.1986C7.11649 19.1907 7.10475 19.1795 7.09626 19.1661C7.08777 19.1526 7.08279 19.1373 7.08176 19.1215C7.08074 19.1056 7.0837 19.0898 7.09039 19.0754C7.09708 19.061 7.10728 19.0484 7.12008 19.0389C7.28283 18.92 7.44557 18.7961 7.60057 18.6722C7.61452 18.661 7.63132 18.6539 7.64911 18.6517C7.6669 18.6494 7.68497 18.6521 7.70131 18.6594C12.7735 20.9132 18.2668 20.9132 23.2797 18.6594C23.296 18.6516 23.3143 18.6486 23.3323 18.6507C23.3504 18.6527 23.3675 18.6597 23.3817 18.6709C23.5367 18.7961 23.6981 18.92 23.8622 19.0389C23.8751 19.0482 23.8855 19.0606 23.8924 19.0749C23.8993 19.0892 23.9025 19.1049 23.9017 19.1208C23.901 19.1366 23.8962 19.152 23.888 19.1656C23.8797 19.1791 23.8682 19.1905 23.8544 19.1986C23.082 19.6381 22.2786 20.0099 21.4352 20.3191C21.4223 20.3238 21.4105 20.3311 21.4006 20.3406C21.3907 20.3501 21.383 20.3616 21.378 20.3743C21.373 20.387 21.3708 20.4006 21.3715 20.4142C21.3723 20.4279 21.3759 20.4412 21.3823 20.4533C21.8472 21.331 22.3794 22.1666 22.9645 22.9601C22.9767 22.9764 22.9936 22.9885 23.013 22.995C23.0324 23.0014 23.0534 23.0017 23.073 22.9959C25.8556 22.1675 28.4767 20.8797 30.8254 19.1871C30.8368 19.1791 30.8464 19.1689 30.8536 19.157C30.8607 19.1451 30.8652 19.1318 30.8667 19.1181C31.5125 12.6095 29.7843 6.95442 26.2827 1.94331C26.2741 1.92702 26.2599 1.91433 26.2427 1.90753ZM10.3595 15.6887C8.83278 15.6887 7.57344 14.3229 7.57344 12.6478C7.57344 10.9715 8.80824 9.60692 10.3595 9.60692C11.9224 9.60692 13.1701 10.983 13.1455 12.6478C13.1455 14.3242 11.9107 15.6887 10.3595 15.6887ZM20.6602 15.6887C19.1322 15.6887 17.8742 14.3229 17.8742 12.6478C17.8742 10.9715 19.1077 9.60692 20.6602 9.60692C22.2231 9.60692 23.4708 10.983 23.4463 12.6478C23.4463 14.3242 22.2244 15.6887 20.6602 15.6887Z" fill="#203152"/>
</svg>
